{"title":"Conan the Barbarian (2011) DVDRip XviD-MAX","uid":6796866,"size":1527557703,"categoryP":"video","categoryS":"movies","magnet":"?xt=urn:btih:0d7a2a89bbfd09360dec265c65530203db5027ca&amp;dn=Conan+the+Barbarian+%282011%29+DVDRip+XviD-MAX&amp;tr=udp%3A%2F%2Ftracker.openbittorrent.com%3A80&amp;tr=udp%3A%2F%2Fopen.demonii.com%3A1337&amp;tr=udp%3A%2F%2Ftracker.coppersurfer.tk%3A6969&amp;tr=udp%3A%2F%2Fexodus.desync.com%3A6969","seeders":21,"leechers":3,"uploader":"extremezone","files":-1,"time":1320489974,"description":" &lt;a href=&quot;http://www.hotimg.com/direct/w2hxxes.jpg&quot; rel=&quot;nofollow&quot; target=&quot;_NEW&quot;&gt;http://www.hotimg.com/direct/w2hxxes.jpg&lt;/a&gt;\n\nScreens:\n &lt;a href=&quot;\nhttp://www.hotimg.com/direct/G2qgXdk.jpg&quot; rel=&quot;nofollow&quot; target=&quot;_NEW&quot;&gt;\nhttp://www.hotimg.com/direct/G2qgXdk.jpg&lt;/a&gt;\n &lt;a href=&quot;\nhttp://www.hotimg.com/direct/fw2VFFv.jpg&quot; rel=&quot;nofollow&quot; target=&quot;_NEW&quot;&gt;\nhttp://www.hotimg.com/direct/fw2VFFv.jpg&lt;/a&gt;\n &lt;a href=&quot;\nhttp://www.hotimg.com/direct/76z7wbW.jpg&quot; rel=&quot;nofollow&quot; target=&quot;_NEW&quot;&gt;\nhttp://www.hotimg.com/direct/76z7wbW.jpg&lt;/a&gt;\n &lt;a href=&quot;\nhttp://www.hotimg.com/direct/eatq8AP.jpg&quot; rel=&quot;nofollow&quot; target=&quot;_NEW&quot;&gt;\nhttp://www.hotimg.com/direct/eatq8AP.jpg&lt;/a&gt;\n\nAlternative:\n &lt;a href=&quot;\nhttp://www.postimg.com/image/52000/photo-51172.jpg&quot; rel=&quot;nofollow&quot; target=&quot;_NEW&quot;&gt;\nhttp://www.postimg.com/image/52000/photo-51172.jpg&lt;/a&gt;\n &lt;a href=&quot;\nhttp://www.postimg.com/image/52000/photo-51173.jpg&quot; rel=&quot;nofollow&quot; target=&quot;_NEW&quot;&gt;\nhttp://www.postimg.com/image/52000/photo-51173.jpg&lt;/a&gt;\n &lt;a href=&quot;\nhttp://www.postimg.com/image/52000/photo-51174.jpg&quot; rel=&quot;nofollow&quot; target=&quot;_NEW&quot;&gt;\nhttp://www.postimg.com/image/52000/photo-51174.jpg&lt;/a&gt;\n &lt;a href=&quot;\nhttp://www.postimg.com/image/52000/photo-51175.jpg&quot; rel=&quot;nofollow&quot; target=&quot;_NEW&quot;&gt;\nhttp://www.postimg.com/image/52000/photo-51175.jpg&lt;/a&gt;\n\nScreenCaps:\n &lt;a href=&quot;\nhttp://www.postimg.com/image/52000/photo-51178.jpg&quot; rel=&quot;nofollow&quot; target=&quot;_NEW&quot;&gt;\nhttp://www.postimg.com/image/52000/photo-51178.jpg&lt;/a&gt;\n\nConan the Barbarian (2011) DVDRip XviD-MAX\n\nFormat                           : AVI\nFormat/Info                      : Audio Video Interleave\nFormat profile                   : OpenDML\nFile size                        : 1.42 GiB\nDuration                         : 1h 52mn\nOverall bit rate                 : 1 799 Kbps\nWriting application              : VirtualDubMod 1.5.10.2 (build 2542/release)\nWriting library                  : VirtualDubMod build 2542/release\nOriginal source form             : MAX TORRENTZ\nCopyright                        : SIGISMUNT\n\nVideo\nID                               : 0\nFormat                           : MPEG-4 Visual\nFormat profile                   : AdvancedSimple@L5\nFormat settings, BVOP            : Yes\nFormat settings, QPel            : No\nFormat settings, GMC             : No warppoints\nFormat settings, Matrix          : Custom\nCodec ID                         : XVID\nCodec ID/Hint                    : XviD\nDuration                         : 1h 52mn\nBit rate                         : 1 603 Kbps\nWidth                            : 720 pixels\nHeight                           : 304 pixels\nDisplay aspect ratio             : 2.35:1\nFrame rate                       : 23.976 fps\nResolution                       : 24 bits\nColorimetry                      : 4:2:0\nScan type                        : Progressive\nBits/(Pixel*Frame)               : 0.305\nStream size                      : 1.26 GiB (89%)\nWriting library                  : XviD 58\n\nAudio\nID                               : 1\nFormat                           : MPEG Audio\nFormat version                   : Version 1\nFormat profile                   : Layer 3\nCodec ID                         : 50\nCodec ID/Hint                    : MP1\nDuration                         : 1h 52mn\nBit rate mode                    : Constant\nBit rate                         : 192 Kbps\nChannel(s)                       : 2 channels\nSampling rate                    : 48.0 KHz\nResolution                       : 16 bits\nStream size                      : 155 MiB (11%)\nAlignment                        : Aligned on interleaves\nInterleave, duration             : 493 ms (11.82 video frames)\nInterleave, preload duration     : 216 ms\n &lt;a href=&quot;\nhttp://www.imdb.com/title/tt0816462/&quot; rel=&quot;nofollow&quot; target=&quot;_NEW&quot;&gt;\nhttp://www.imdb.com/title/tt0816462/&lt;/a&gt;\n\nSource: DVD (perfect a/v/sync quality,sample included)\nThis torrent is not seedbox supported,please seed it to the MAX\n\nNote:If you have something to offer as early releases,seedboxes,links,accounts,etc\nplease contact us on piratepedia[@]msn/gmail.com or our website torentz 3xforum ro\n\nConan the Barbarian (2011) DVDRip XviD-MAX Torrent Free Download\n &lt;a href=&quot;\nhttp://thepiratebay.se/user/extremezone/0/7&quot; rel=&quot;nofollow&quot; target=&quot;_NEW&quot;&gt;\nhttp://thepiratebay.se/user/extremezone/0/7&lt;/a&gt;\n\nHow To Get Your Maxspeed (uTorrent)\n\nTorrent Client - Preferences - Bandwidth - Number of connections - Set aprox. 500 for each \nTorrent Client - Preferences - BiTorrent - Protocol Encryption - Forced\nBandwidth Allocation - High (Set download/upload limit - Unlimited)\nStop Other Active Torrents - Start downloading and wait for connections.\nEnjoy and Seed for at least 1:1 ratio. Don't forget to say thanks/leave reviews.\nBefore downloading you should check/google search sample &quot;release name&quot;&quot;sample&quot;.\nGreets to all actual/future p2p/scene QUALITY groups and affiliate websites.\nDon't trust IMDb robot or bad ratings,always watch some trailers first.\nIgnore stupid comments/fake/mislabeled/no-DVDrips/CAM/TS/RAR uploads.\nPlease spread this release/torrent to your friends/forums/etc.\nIf you need translation subs visit some subtitles sites.\nReport if you see online streaming or other spam links.\nRecommended movie player VLC PLAYER.","torrent":{"xt":"urn:btih:0d7a2a89bbfd09360dec265c65530203db5027ca","amp;dn":"Conan+the+Barbarian+%282011%29+DVDRip+XviD-MAX","amp;tr":["udp%3A%2F%2Ftracker.openbittorrent.com%3A80","udp%3A%2F%2Fopen.demonii.com%3A1337","udp%3A%2F%2Ftracker.coppersurfer.tk%3A6969","udp%3A%2F%2Fexodus.desync.com%3A6969"],"infoHash":"0d7a2a89bbfd09360dec265c65530203db5027ca","infoHashBuffer":{"type":"Buffer","data":[13,122,42,137,187,253,9,54,13,236,38,92,101,83,2,3,219,80,39,202]},"announce":[],"urlList":[]}}